<svg width="185" height="36" viewBox="0 0 185 36" fill="none" xmlns="http://www.w3.org/2000/svg">
<path d="M0 2.09348H32.7613V35.0216H0V2.09348Z" fill="#FF5900"/>
<path d="M39.3081 35.0216V2.36561H52.1266C59.5036 2.36561 63.7712 6.94192 63.7712 13.4317C63.7712 19.9533 59.4243 24.4339 51.9521 24.4339H46.1774V35.0216H39.3081ZM50.8099 8.01026H46.1774V18.9009H50.8416C54.776 18.9009 56.6956 16.6686 56.6956 13.4317C56.6956 10.1788 54.776 8.01026 50.8099 8.01026Z" fill="#FFF8F4"/>
<path d="M68.1062 14.4522L74.8645 10.5296V35.0216H68.1062V14.4522Z" fill="#FFF8F4"/>
<path d="M91.2882 35.5C83.7843 35.5 79.2946 30.3178 79.2946 22.8713C79.2946 15.3611 83.8636 10.2107 91.2565 10.2107C96.2855 10.2107 99.9978 12.5228 101.473 16.2859L95.7937 19.5866C95.4289 17.1469 93.8424 15.5046 91.3675 15.5046C88.2264 15.5046 86.164 18.1515 86.164 22.7756C86.164 27.4636 88.2105 30.1264 91.3675 30.1264C93.6838 30.1264 95.3971 28.6595 95.7937 26.0444L101.489 29.3451C100.03 33.1082 96.4125 35.5 91.2882 35.5Z" fill="#FFF8F4"/>
<path d="M106.363 35.0216V2.36561H119.372C126.543 2.36561 130.16 5.84169 130.16 10.7369C130.16 14.5797 127.67 16.9875 124.29 17.7529V18.0718C127.987 18.2472 131.429 21.1652 131.429 25.9966C131.429 31.1948 127.543 35.0216 120.245 35.0216H106.363ZM118.992 20.7027H113.233V29.377H118.833C122.672 29.377 124.338 27.7665 124.338 25.3109C124.338 22.6162 122.291 20.7027 118.992 20.7027ZM113.233 7.94647V16.0308H118.325C121.133 16.0308 123.227 14.4681 123.227 11.885C123.227 9.52506 121.498 7.94647 118.452 7.94647H113.233Z" fill="#FFF8F4"/>
<path d="M134.789 22.8713C134.789 15.2813 139.389 10.2107 146.782 10.2107C154.175 10.2107 158.776 15.2813 158.776 22.8713C158.776 30.4134 154.175 35.5 146.782 35.5C139.389 35.5 134.789 30.4134 134.789 22.8713ZM141.658 22.8235C141.658 27.0968 143.403 30.238 146.814 30.238C150.161 30.238 151.907 27.0968 151.907 22.8235C151.907 18.5501 150.161 15.3929 146.814 15.3929C143.403 15.3929 141.658 18.5501 141.658 22.8235Z" fill="#FFF8F4"/>
<path d="M168.564 35.0216H161.584L168.818 22.7756L161.838 10.5296H168.818L173.292 19.0923L177.877 10.5296H184.81L177.75 22.7756L185 35.0216H178.099L173.292 26.5547L168.564 35.0216Z" fill="#FFF8F4"/>
<path d="M68 4L75 0V5.5L68 9.5V4Z" fill="#FFF8F4"/>
</svg>
